<?xml version="1.0" encoding="UTF-8"?>
<svg xmlns="http://www.w3.org/2000/svg" version="1.0" width="242.000000pt" height="174.000000pt" viewBox="0 0 242.000000 174.000000" preserveAspectRatio="xMidYMid meet">
  <g transform="translate(0.000000,174.000000) scale(0.100000,-0.100000)" fill="#FFFFFF" stroke="none">
    <path d="M855 1624 c-5 -1 -26 -5 -46 -8 -36 -6 -119 -76 -119 -101 0 -24 -46 -55 -81 -55 -30 0 -36 5 -52 39 -23 51 -52 61 -161 57 -86 -3 -91 -5 -118 -35 -15 -17 -28 -38 -28 -46 0 -9 -18 -19 -47 -27 -61 -15 -125 -77 -142 -138 -9 -34 -11 -165 -9 -522 l3 -476 30 -44 c18 -26 48 -52 77 -66 l46 -23 833 -2 834 -2 45 23 c47 24 94 80 105 125 4 15 11 27 15 27 5 0 43 -36 85 -79 43 -44 92 -87 110 -97 88 -47 189 49 141 135 -26 46 -240 252 -268 258 -16 3 -28 8 -28 11 0 3 12 35 27 71 22 54 27 82 27 151 0 102 -23 170 -83 243 -40 47 -40 48 -25 83 19 45 12 158 -12 209 -18 39 -73 91 -111 106 -13 5 -108 11 -210 13 -209 4 -185 -5 -250 89 -53 77 -63 79 -337 82 -133 1 -245 1 -251 -1z m509 -49 c20 -10 45 -38 72 -82 l40 -68 205 -5 c199 -5 207 -6 242 -30 54 -36 75 -88 79 -193 2 -48 0 -87 -3 -87 -3 0 -14 9 -23 19 -35 39 -115 64 -206 65 -110 1 -144 -7 -216 -50 -42 -25 -60 -32 -63 -22 -10 34 -126 131 -197 165 -327 155 -696 -63 -721 -427 -10 -143 41 -276 147 -380 134 -131 302 -177 485 -130 93 24 150 55 218 121 l50 48 37 -33 c60 -54 139 -80 245 -81 77 0 98 4 148 27 57 27 75 31 69 14 -1 -4 4 -19 13 -32 8 -13 15 -33 15 -45 0 -39 -38 -103 -77 -129 l-37 -25 -820 -3 c-452 -2 -835 0 -853 3 -39 7 -87 46 -111 89 -15 28 -17 78 -20 466 -2 239 0 458 3 487 7 57 34 104 78 137 27 20 43 21 268 24 l239 3 46 70 c25 38 58 76 73 84 39 21 529 21 575 0z m-834 -81 c6 -14 10 -27 10 -30 0 -2 -59 -4 -131 -4 l-130 0 7 23 c10 34 21 37 132 37 101 0 103 0 112 -26z m733 -262 c67 -31 132 -83 169 -134 l21 -30 -22 -29 c-12 -16 -26 -41 -32 -56 l-10 -27 -29 51 c-35 61 -77 98 -150 132 -45 21 -70 26 -135 26 -68 0 -89 -5 -139 -29 -157 -77 -228 -238 -178 -403 28 -90 80 -151 166 -193 150 -74 328 -33 419 97 l31 44 12 -35 c7 -19 20 -45 28 -59 16 -23 15 -25 -34 -71 -98 -92 -245 -139 -368 -118 -92 15 -198 70 -256 132 -92 98 -141 251 -118 370 54 293 361 456 625 332z m637 -113 c70 -33 135 -99 168 -168 48 -105 39 -254 -22 -343 l-24 -36 21 -20 c12 -11 35 -20 50 -20 29 1 31 -2 200 -180 60 -64 68 -76 62 -100 -9 -36 -24 -50 -62 -58 -31 -6 -38 -1 -153 117 -102 104 -120 127 -120 154 0 19 -8 39 -19 49 -18 16 -21 16 -65 -13 -130 -81 -306 -63 -424 44 -82 73 -123 201 -102 317 25 136 98 220 239 274 59 22 185 14 251 -17z m-705 -13 c52 -24 97 -63 151 -132 l32 -40 -6 -113 -5 -112 -57 -59 c-80 -84 -149 -114 -252 -108 -64 4 -85 10 -135 39 -62 37 -115 104 -133 169 -42 151 39 310 186 364 63 23 160 20 219 -8z"></path>
    <path d="M292 1254 c-32 -22 -30 -76 4 -103 15 -12 32 -21 39 -21 29 0 65 41 65 74 0 58 -58 85 -108 50z m66 -53 c-2 -9 -11 -17 -21 -19 -21 -4 -35 27 -17 38 19 12 42 0 38 -19z"></path>
    <path d="M1665 1058 c-163 -59 -231 -238 -147 -391 28 -53 95 -107 156 -127 52 -17 151 -8 203 18 22 12 59 42 80 66 151 171 25 448 -202 445 -33 0 -73 -5 -90 -11z m179 -42 c91 -38 153 -139 143 -234 -9 -89 -71 -171 -151 -202 -81 -30 -197 -2 -257 62 -33 35 -42 54 -54 106 -6 31 -6 33 18 27 38 -10 62 9 91 70 23 50 33 59 79 80 63 28 81 47 75 80 -6 29 7 32 56 11z m-89 -21 c0 -14 -13 -24 -50 -37 -55 -19 -101 -63 -111 -105 -10 -49 -13 -53 -33 -53 -71 0 11 159 103 201 52 24 91 21 91 -6z"></path>
    <path d="M1060 999 c-30 -12 -117 -94 -135 -129 -22 -42 16 -96 61 -88 12 2 20 -10 29 -40 14 -45 38 -71 67 -72 25 0 58 48 58 87 0 30 3 34 23 33 39 -4 46 -1 63 25 21 32 12 55 -44 113 -65 67 -91 82 -122 71z m92 -86 c62 -61 67 -73 42 -94 -14 -11 -21 -8 -50 24 -19 20 -36 37 -39 37 -2 0 -6 -39 -7 -87 -3 -80 -5 -88 -23 -88 -18 0 -20 8 -23 89 l-3 89 -39 -38 c-38 -37 -41 -38 -57 -22 -16 16 -14 21 47 82 35 36 71 65 79 65 9 0 41 -26 73 -57z"></path>
  </g>
</svg>
